<svg height="473pt" preserveAspectRatio="xMidYMid meet" viewBox="0 0 472 473" width="472pt" xmlns="http://www.w3.org/2000/svg"><g transform="matrix(.1 0 0 -.1 0 473)"><path d="m2035 4713c-24-60-36-243-21-318 6-33 4-45-12-65-17-21-24-23-48-15-34 12-44 51-34 139 3 31 3 56 0 56-8 0-47-93-66-156-10-35-11-57-3-97 19-89 120-167 215-167 71 0 183 83 201 148 13 46 7 125-11 162-67 133-75 145-81 127-7-17-3-76 11-143 7-37-15-64-51-64-39 0-48 31-40 135 5 69 3 99-6 117-8 12-14 52-14 88 0 52-3 65-16 68-9 2-20-5-24-15z"/><path d="m1945 3952c-105-50-174-155-183-274-6-83 10-143 52-203 48-67 112-112 186-131 123-31 240-1 323 84 70 73 91 122 95 223 3 76 1 92-22 137-33 66-99 132-161 162-38 18-71 24-140 27-83 4-95 2-150-25z"/><path d="m1613 3500c2-109 4-119 36-185 141-286 529-359 761-143 87 81 149 215 150 323v60l-40-80c-57-115-125-182-233-234-155-74-333-55-480 53-69 50-119 119-152 209-44 121-45 121-42-3z"/><path d="m1106 3040c-10-25-31-78-47-118-16-39-39-93-51-120-19-39-23-64-23-152 0-58 4-133 8-166l8-62-118-8c-119-7-145-4-301 42-21 6-22 4-16-20 4-19 2-26-8-26-8 0-23-9-33-20-13-14-31-20-61-20-25 0-44-5-47-12-2-7 6-40 19-73 18-49 112-376 144-500 4-16 33-120 63-230 49-176 134-508 230-893 16-68 36-130 43-137 11-10 32-9 116 6 111 21 217 33 428 49 74 6 243 20 375 30s311 22 397 26l158 7 11-33c16-43 61-61 169-67 137-7 203 18 173 66-23 37-54 37 402-4 154-14 406-44 560-66 154-21 286-39 293-39 21 0 13 34-18 83-16 26-30 56-30 65 0 10-7 28-16 40-14 21-14 22 5 22 12 0 21 5 21 11 0 5-35 58-78 117-99 135-205 316-346 597-108 213-136 278-285 660-39 99-75 187-79 195-7 12-28 14-118 10-60-3-167-5-239-4h-130l-220 68c-275 84-292 86-381 51-38-14-78-36-88-48-13-15-20-18-23-9-11 31-86 132-130 175-65 64-97 84-157 97-154 34-302 72-333 85-73 31-191 108-204 134-6 14-15 73-18 131l-6 105zm22-211c13-33 40-52 174-123 94-50 121-60 220-77 229-40 266-61 373-221 53-79 83-136 113-220 22-62 56-153 75-203 19-49 75-198 125-330 90-238 225-587 262-677 33-78 26-89-23-37-67 71-155 127-306 193-45 20-95 36-110 36-94 0-404 67-583 126l-108 36-21 46c-73 161-172 473-219 692-34 156-76 433-86 570-7 90-6 92 72 295 6 15 10 9 19-30 7-28 17-62 23-76zm-253-452 130-2 3-25c24-203 88-498 154-700 36-112 107-300 119-316 41-53 399-165 591-185 200-21 240-32 372-106 85-48 140-87 186-132 41-41 60-66 52-69-8-2-26 7-40 20-31 29-75 42-191 59-120 17-187 7-456-66-303-83-382-97-530-99l-120-1-23 70c-40 122-182 591-252 835-62 213-111 360-214 643-20 54-36 102-36 106 0 5 28 0 63-11 46-14 95-20 192-21zm1470-25c317-98 313-97 500-97 94 0 199 2 235 4l65 5 38-100c115-302 178-454 253-603 128-256 263-494 405-716l58-90-72-8c-40-4-115-6-167-4-84 4-118 12-295 70-238 78-326 103-419 117-61 10-76 8-134-10-106-34-141-56-174-111-17-27-34-49-38-49-3 0-28 57-55 128-78 205-191 500-287 747-110 283-248 656-248 670 0 35 120 98 175 91 17-2 89-21 160-44zm-1726-58c39-92 109-303 201-604 38-124 105-340 148-480s91-306 107-367c18-69 35-115 44-118 8-3 69-6 135-7l121-1-65-13c-36-7-103-15-149-16l-85-3-34 110c-18 61-42 137-51 170-10 33-35 114-56 180-20 66-65 217-100 336s-90 301-123 405c-56 175-142 465-142 478 0 3 4 6 9 6 4 0 23-34 40-76zm-14-154c31-107 65-218 75-246 19-53 73-234 160-544 29-102 86-297 127-434l74-250-23-17c-13-10-26-15-29-11-4 4-50 162-103 352-54 190-110 388-126 440-178 603-250 857-250 886 0 27 21 49 31 32 4-7 32-101 64-208zm1605-1255c52-3 120-13 150-22 91-25 160-87 181-163 6-25 15-49 20-54 4-5 28 22 52 60 65 99 99 128 192 160 96 32 70 37 435-71 329-97 405-114 553-122l117-6 11-40c6-21 8-41 5-44-10-10-210-2-324 13-129 17-322 64-502 124-118 39-130 42-222 38-89-3-99-5-140-35-40-29-43-35-43-76 0-25-3-49-7-52-4-4-38-10-75-12-55-4-75-1-103 15-36 21-37 22-26 59 9 29-52 97-100 113-51 17-347 18-414 1-110-27-307-82-377-106-74-25-250-48-473-60l-115-7 29 26c26 24 37 26 113 26 125 0 258 31 539 126 267 90 390 125 414 119 8-2 58-6 110-10z"/><path d="m1500 2466c12-14 20-31 17-39s-33-23-66-33c-73-23-81-44-16-44 38 0 45-3 45-20 0-12-9-22-24-26-37-9-79-58-71-83 11-36 48-54 89-43 38 11 48 5 60-34 7-23-14-47-51-58-41-13-27-35 25-38 40-3 47-6 50-25 2-15-6-29-27-44-16-12-32-28-35-35-11-28 14-23 54 11 45 38 91 46 124 22 15-11 16-17 6-39-11-23-47-48-70-48-13 0-90-53-90-62 0-4 17-7 38-6 48 2 62-7 62-36 0-17-10-28-35-40-41-20-37-36 9-36 60 0 75-41 24-64-50-23-68-41-68-68 0-40 30-60 86-56 46 3 48 2 57-29 8-28 5-39-22-81s-40-82-27-82c2 0 32 14 67 31 58 29 67 31 130 25 67-7 68-6 74 17 4 14 2 40-3 58-5 19-5 46-1 61 9 35-6 46-33 22-17-16-19-27-14-65l6-46-37-6c-21-4-53-9-70-13-41-8-43 8-7 40l26 22-40 160c-58 231-59 238-28 275 41 49 34 78-26 103-20 9-39 20-42 25-8 13-86 317-86 335 0 15 52 46 76 46 7 0 18-16 24-35 9-26 19-37 43-44 40-10 56 2 35 26-9 10-19 33-23 51-8 40-20 46-73 34-35-8-49-6-93 14-65 30-78 30-49 0zm1-217c4-18 5-37 3-41-10-16-43-7-58 14-15 20-14 24 6 45 28 30 41 25 49-18zm167-648c12-35 2-54-28-49-36 5-47 31-27 62 20 30 42 25 55-13z"/><path d="m1413 1823c-4-10 2-23 17-35 27-22 44-19 48 8s-56 51-65 27z"/><path d="m1434 1739c-9-16 24-59 46-59 23 0 28 32 8 47-22 17-47 23-54 12z"/><path d="m2621 2181c-24-15-4-39 39-46 22-4 39-12 37-18s-29-24-60-40c-31-17-57-33-57-38 0-4 18-5 40-2 51 7 53-11 5-50-19-15-35-34-35-41 0-24 33-41 79-41 44 0 46-1 46-30 0-27-3-30-37-33-37-3-48-14-28-27 7-4 7-13 0-26-9-16-7-19 13-19 16 0 28 9 35 25 14 30 37 32 52 6 7-15 6-23-6-35-8-9-19-16-24-16-4 0-10-7-13-15-5-11 2-14 29-13 53 2 62-21 22-54l-32-28h41c53 0 63-22 23-52-31-23-32-39-1-31 27 7 61-14 61-37 0-11-11-27-25-36-35-23-31-34 12-31 50 3 58-27 17-60l-29-23h43c38 0 42-2 42-24 0-16-7-27-20-31-11-4-28-18-37-31-15-23-14-26 3-45 15-16 26-20 53-15 19 3 41 0 48-6 20-16 16-56-7-70-30-19-24-36 11-34 43 2 46-15 9-57-21-24-27-38-19-43 7-4 24 8 43 29 35 42 72 58 102 47 31-12 36-35 13-64-26-33-5-35 35-3 27 22 28 25 15 53-11 23-22 30-54 34-27 3-41 10-43 23-4 17 2 21 51 32 26 5 28 8 21 38-4 18-7 42-6 55 1 12-3 22-8 22-15 0-32-41-27-66 3-18-2-28-15-35-25-13-40 0-58 51-6 19-30 85-52 145-21 61-52 146-67 190-16 44-44 125-64 180-19 55-54 154-77 220l-42 120 32 26c18 15 30 32 26 37-3 5-30 13-61 17-30 3-57 11-60 16-8 11-16 11-34 0zm67-224c3-21-1-27-15-27-29 0-44 20-32 42 15 27 43 18 47-15zm242-666c17-33 12-53-11-49-31 4-46 32-30 52 18 21 28 20 41-3z"/><path d="m2620 1709c0-12 29-38 43-39 5 0 7 10 5 23-3 23-48 39-48 16z"/><path d="m2640 1642c0-5 9-17 20-27 23-21 47-8 37 19-7 16-57 23-57 8z"/><path d="m2720 1431c13-26 53-29 48-3-2 10-14 18-31 20-26 3-28 2-17-17z"/><path d="m2742 1368c6-16 36-34 44-26 3 4 4 14 1 23-7 17-51 21-45 3z"/></g></svg>